<svg width="125" height="64" viewBox="0 0 125 64" fill="none" xmlns="http://www.w3.org/2000/svg">
<g clip-path="url(#clip0_94_1010)">
<path d="M27.7713 22.5687H41.5752V58.1243H27.7713V22.5687Z" fill="#F39130"/>
<path d="M46.1765 42.3539C46.1765 42.3539 56.135 41.3196 60.7435 45.1997C65.7162 49.3864 64.9587 58.1243 64.9587 58.1243H46.1765V42.3539Z" fill="#F39130"/>
<path d="M46.1765 23.02C46.1765 23.02 56.0309 21.0637 60.6711 25.2964C65.5569 29.7529 65.0925 35.5155 60.6711 41.6408C56.2501 47.7663 46.1765 44.9103 46.1765 44.9103V23.02Z" fill="#F39130"/>
<path d="M1 5H14.8039V40.5556H1V5Z" fill="#128CC3"/>
<path d="M22.2817 25.3734C26.1166 21.9332 28.9931 21.3458 33.2609 25.3734C37.8656 29.7191 37.4369 34.0045 33.2609 37.7508C29.426 41.1911 26.5495 41.7785 22.2817 37.7508C17.677 33.4051 18.1056 29.1198 22.2817 25.3734Z" fill="#128CC3"/>
<path d="M22.0243 7.89268C26.3318 3.79024 29.7348 4.28937 33.5183 7.89268C37.3018 11.496 37.8259 14.7369 33.5183 18.8394C29.2107 22.9418 25.8077 22.4427 22.0243 18.8394C18.2408 15.2361 17.7167 11.9951 22.0243 7.89268Z" fill="#128CC3"/>
<path d="M66.4844 30.7344H74.8906V52H66.4844V30.7344ZM90.6719 30.7344H99.2969V41.6719H98.1875C95.5 41.6719 93.5729 41.2083 92.4062 40.2812C91.25 39.3542 90.6719 37.776 90.6719 35.5469V30.7344ZM87.5469 52C85.8594 52 84.3594 51.375 83.0469 50.125C81.8906 49.0208 80.9844 47.5521 80.3281 45.7188C79.724 44.0312 79.4219 42.3594 79.4219 40.7031C79.4219 38.2135 80.0365 36 81.2656 34.0625C82.1406 32.6875 83.2917 31.7188 84.7188 31.1562C85.4479 30.875 86.2604 30.7344 87.1562 30.7344H88.3594V52H87.5469ZM90.6719 47.9219H98.4844V48.3594C98.4844 49.3281 98.1354 50.1458 97.4375 50.8125C96.5833 51.6042 95.3698 52 93.7969 52H90.6719V47.9219ZM114.547 30.7344H123.219V36.6406H121.594C118.771 36.6406 116.844 36.1979 115.812 35.3125C114.969 34.5833 114.547 33.4062 114.547 31.7812V30.7344ZM103.438 30.7344H111.844V39.2969H118.109V43.375H111.844V51.9688H103.438V30.7344ZM114.531 50.4844C114.531 48.3281 115.781 46.8646 118.281 46.0938C119.24 45.8021 120.474 45.6562 121.984 45.6562H123.219V52H114.531V50.4844Z" fill="#F39130"/>
<path d="M49.4219 11.2344H50.8281C54.6615 11.2344 56.9479 12.5312 57.6875 15.125C57.9375 15.9792 58.0625 16.9583 58.0625 18.0625V32.5H49.4219V11.2344ZM37.8906 18.0625C37.8906 15.7604 38.4167 14.0729 39.4688 13C40.625 11.8229 42.5104 11.2344 45.125 11.2344H46.5312V32.5H37.8906V18.0625ZM62.4531 11.2344H70.8594V32.5H62.4531V11.2344ZM93.9062 11.2344H100.906V20.0625H99.1562C98.0104 20.0625 97.1667 19.9427 96.625 19.7031C96.0833 19.4531 95.6562 19.1771 95.3438 18.875C95.0417 18.5625 94.7812 18.1562 94.5625 17.6562C94.125 16.6354 93.9062 15.2188 93.9062 13.4062V11.2344ZM83.7969 11.2344H92.2031V32.5H83.7969V11.2344ZM75.0469 11.2344H82.0469V13.4062C82.0469 16.0833 81.5625 17.9062 80.5938 18.875C79.8021 19.6667 78.5365 20.0625 76.7969 20.0625H75.0469V11.2344Z" fill="#128CC3"/>
</g>
<defs>
<clipPath id="clip0_94_1010">
<rect width="125" height="64" fill="white"/>
</clipPath>
</defs>
</svg>
