<svg width="64" height="64" viewBox="0 0 64 64" fill="none" xmlns="http://www.w3.org/2000/svg">
<path d="M26.7713 22.5687H40.5752V58.1243H26.7713V22.5687Z" fill="#F39130"/>
<path d="M45.1765 42.3539C45.1765 42.3539 55.135 41.3196 59.7435 45.1997C64.7162 49.3864 63.9587 58.1243 63.9587 58.1243H45.1765V42.3539Z" fill="#F39130"/>
<path d="M45.1765 23.02C45.1765 23.02 55.0309 21.0637 59.6711 25.2964C64.5569 29.7529 64.0925 35.5155 59.6711 41.6408C55.2501 47.7663 45.1765 44.9103 45.1765 44.9103V23.02Z" fill="#F39130"/>
<path d="M0 5H13.8039V40.5556H0V5Z" fill="#128CC3"/>
<path d="M21.2817 25.3734C25.1166 21.9332 27.9931 21.3458 32.2609 25.3734C36.8656 29.7191 36.4369 34.0045 32.2609 37.7508C28.426 41.1911 25.5495 41.7785 21.2817 37.7508C16.677 33.4051 17.1056 29.1198 21.2817 25.3734Z" fill="#128CC3"/>
<path d="M21.0243 7.89268C25.3318 3.79024 28.7348 4.28937 32.5183 7.89268C36.3018 11.496 36.8259 14.7369 32.5183 18.8394C28.2107 22.9418 24.8077 22.4427 21.0243 18.8394C17.2408 15.2361 16.7167 11.9951 21.0243 7.89268Z" fill="#128CC3"/>
</svg>
