<svg width="512" height="512" viewBox="0 0 512 512" fill="none" xmlns="http://www.w3.org/2000/svg">
<g clip-path="url(#clip0_70_1027)">
<path d="M107 114H217.431V398.444H107V114Z" fill="#FFDCE3"/>
<path d="M254.242 272.282C254.242 272.282 333.91 264.007 370.777 295.048C410.559 328.542 404.499 398.445 404.499 398.445H254.242V272.282Z" fill="#FFDCE3"/>
<path d="M254.242 117.611C254.242 117.611 333.077 101.961 370.198 135.822C409.284 171.474 405.57 217.575 370.198 266.577C334.83 315.581 254.242 292.733 254.242 292.733V117.611Z" fill="#FFDCE3"/>

<path d="M107 114H217.431V398.444H107V114Z" fill="#FAF5E0"/>
<path d="M286.358 276.987C317.037 249.465 340.049 244.766 374.191 276.987C411.029 311.753 407.6 346.035 374.191 376.006C343.512 403.528 320.5 408.227 286.358 376.006C249.52 341.24 252.949 306.958 286.358 276.987Z" fill="#FAF5E0"/>
<path d="M284.299 137.141C318.759 104.322 345.983 108.315 376.25 137.141C406.518 165.968 410.711 191.895 376.25 224.715C341.79 257.534 314.566 253.541 284.299 224.715C254.031 195.889 249.838 169.961 284.299 137.141Z" fill="#FAF5E0"/>
</g>
<defs>
<clipPath id="clip0_70_1027">
<rect width="512" height="512" fill="white"/>
</clipPath>
</defs>
</svg>
