<svg width="512" height="512" viewBox="0 0 512 512" fill="none" xmlns="http://www.w3.org/2000/svg">
<g clip-path="url(#clip0_70_1041)">
<path d="M214 185H324.431V469.444H214V185Z" fill="#FFDCE3"/>
<path d="M361.242 343.282C361.242 343.282 440.91 335.007 477.777 366.048C517.559 399.542 511.499 469.445 511.499 469.445H361.242V343.282Z" fill="#FFDCE3"/>
<path d="M361.242 188.611C361.242 188.611 440.077 172.961 477.198 206.822C516.284 242.474 512.57 288.575 477.198 337.577C441.83 386.581 361.242 363.733 361.242 363.733V188.611Z" fill="#FFDCE3"/>
<path d="M0 43H110.431V327.444H0V43Z" fill="#FAF5E0"/>
<path d="M179.358 205.987C210.037 178.465 233.049 173.766 267.191 205.987C304.029 240.753 300.6 275.035 267.191 305.006C236.512 332.528 213.5 337.227 179.358 305.006C142.52 270.24 145.949 235.958 179.358 205.987Z" fill="#FAF5E0"/>
<path d="M177.299 66.1414C211.759 33.3219 238.983 37.315 269.25 66.1414C299.518 94.9677 303.711 120.895 269.25 153.715C234.79 186.534 207.566 182.541 177.299 153.715C147.031 124.889 142.838 98.961 177.299 66.1414Z" fill="#FAF5E0"/>
</g>
<defs>
<clipPath id="clip0_70_1041">
<rect width="512" height="512" fill="white"/>
</clipPath>
</defs>
</svg>
