<svg width="153" height="127" viewBox="0 0 153 127" fill="none" xmlns="http://www.w3.org/2000/svg">
<path d="M64 42H97V127H64V42Z" fill="#EEEEEE"/>
<path d="M108 89.299C108 89.299 131.807 86.8264 142.824 96.1023C154.712 106.111 152.901 127 152.901 127H108V89.299Z" fill="#EEEEEE"/>
<path d="M108 43.0791C108 43.0791 131.558 38.4023 142.651 48.521C154.331 59.1748 153.221 72.951 142.651 87.5943C132.082 102.238 108 95.4104 108 95.4104V43.0791Z" fill="#EEEEEE"/>
<path d="M0 0H33V85H0V0Z" fill="#FFFFFF"/>
<path d="M50.8765 48.7052C60.0443 40.4808 66.9209 39.0766 77.1235 48.7052C88.1316 59.0941 87.1069 69.3387 77.1235 78.2948C67.9557 86.5192 61.0791 87.9234 50.8765 78.2948C39.8684 67.9059 40.8931 57.6613 50.8765 48.7052Z" fill="#FFFFFF"/>
<path d="M50.2611 6.91529C60.5588 -2.89208 68.6941 -1.69884 77.7389 6.91529C86.7838 15.5294 88.0367 23.2773 77.7389 33.0847C67.4412 42.8921 59.3059 41.6988 50.2611 33.0847C41.2162 24.4706 39.9633 16.7227 50.2611 6.91529Z" fill="#FFFFFF"/>
</svg>
